# xmcd
#
# Track frame offsets: 
#        150
#        13032
#        27590
#        40297
#        64672
#        77650
#        89295
#        101665
#        112595
#        131662
#        145497
#        158392
#        176215
#        190962
#
# Disc length: 2709 seconds
#
# Revision: 2
# Processed by: cddbd v1.5.2PL0 Copyright (c) Steve Scherf et al.
# Submitted via: ExactAudioCopy v1.0b3
#
DISCID=b50a930e
DTITLE=Compilation - Feelin' the Blues
DYEAR=1900
DGENRE=
TTITLE0=Feelin' the Blues - Rock Me, Momma
TTITLE1=Feelin' the Blues - Good Morning Little School Girl
TTITLE2=Feelin' the Blues - Tell Me What I've Done
TTITLE3=Feelin' the Blues - The Thrill is Gone
TTITLE4=Feelin' the Blues - Why My Baby
TTITLE5=Feelin' the Blues - Snow-Cone II
TTITLE6=Feelin' the Blues - Keep it to Myself
TTITLE7=Feelin' the Blues - Stormy Monday
TTITLE8=Feelin' the Blues - I Want You So Bad
TTITLE9=Feelin' the Blues - Three Hundred Pounds of Joy
TTITLE10=Feelin' the Blues - Got My Mojo Workin'
TTITLE11=Feelin' the Blues - Worried Mind
TTITLE12=Feelin' the Blues - Dyin' Flu
TTITLE13=Feelin' the Blues - Doggin' the Dog
EXTD=
EXTT0=Joe Turner\n
EXTT1=Muddy Waters\n
EXTT2=Howlin' Wolf\n
EXTT3=B.B. King\n
EXTT4=T-Bone Walker\n
EXTT5=Albert Collins\n
EXTT6=Buddy Guy\n
EXTT7=T-Bone Walker\n
EXTT8=B.B. King\n
EXTT9=Howlin' Wolf\n
EXTT10=Muddy Waters\n
EXTT11=Buddy Guy\n
EXTT12=Albert Collins\n
EXTT13=Joe Turner\n
PLAYORDER=
